<?xml version="1.0" encoding="utf-8"?>
<!-- Generator: Adobe Illustrator 27.5.0, SVG Export Plug-In . SVG Version: 6.00 Build 0)  -->
<svg version="1.1" xmlns="http://www.w3.org/2000/svg" xmlns:xlink="http://www.w3.org/1999/xlink" x="0px" y="0px"
	 viewBox="0 0 2200 2200" style="enable-background:new 0 0 2200 2200;" xml:space="preserve">
<g id="background">
	<rect style="fill:#FFFFFF;" width="2200" height="2200"/>
</g>
<g id="Objects">
	<g>
		<circle style="fill:#0F4D84;" cx="1100" cy="1298.584" r="41.614"/>
		<path style="fill:#0F4D84;" d="M1394.156,972.046c-80.238-74.317-184.705-115.245-294.156-115.245
			s-213.918,40.928-294.156,115.245c-11.682,10.82-12.38,29.061-1.561,40.742c10.818,11.682,29.061,12.38,40.742,1.561
			c69.545-64.414,160.097-99.888,254.975-99.888s185.43,35.474,254.975,99.888c5.548,5.138,12.575,7.679,19.584,7.679
			c7.749,0,15.477-3.106,21.158-9.24C1406.536,1001.107,1405.838,982.866,1394.156,972.046z"/>
		<path style="fill:#0F4D84;" d="M1302.696,1070.867c-53.198-49.279-122.461-77.446-195.031-79.313
			c-78.199-2.018-152.932,26.155-210.354,79.306c-11.685,10.815-12.39,29.056-1.573,40.741
			c10.816,11.686,29.057,12.389,40.741,1.573c46.325-42.879,106.6-65.604,169.704-63.979
			c58.547,1.506,114.421,24.225,157.329,63.973c5.548,5.139,12.575,7.68,19.585,7.68c7.749,0,15.476-3.105,21.157-9.238
			C1315.074,1099.928,1314.377,1081.687,1302.696,1070.867z"/>
		<path style="fill:#0F4D84;" d="M1211.608,1169.284c-26.279-24.365-59.064-39.185-94.808-42.857
			c-46.926-4.831-93.712,10.789-128.372,42.845c-11.689,10.812-12.401,29.052-1.591,40.741c5.683,6.144,13.416,9.255,21.173,9.255
			c7.002,0,14.022-2.535,19.568-7.664c22.504-20.812,52.875-30.952,83.325-27.819c23.202,2.384,44.47,11.991,61.503,27.783
			c11.674,10.824,29.916,10.136,40.742-1.541C1223.975,1198.351,1223.285,1180.109,1211.608,1169.284z"/>
		<path style="fill:#0F4D84;" d="M1958.075,1014.852c-48.77,0-89.99,32.935-102.596,77.731h-277.174
			c0.237-7.553,0.367-15.163,0.367-22.84V943.87h200.222c15.922,0,28.83-12.908,28.83-28.83V761.83
			c44.794-12.606,77.728-53.826,77.728-102.595c0-58.758-47.804-106.562-106.562-106.562s-106.562,47.804-106.562,106.562
			c0,48.772,32.937,89.994,77.735,102.597V886.21h-171.392V756.123c0-11.357-6.668-21.657-17.031-26.305
			c-79.388-35.61-157.773-67.529-226.439-94.08V498.876h124.381c12.604,44.798,53.825,77.734,102.597,77.734
			c58.759,0,106.563-47.804,106.563-106.562s-47.804-106.562-106.563-106.562c-48.77,0-89.99,32.934-102.595,77.729h-153.212
			c-15.922,0-28.83,12.908-28.83,28.83v143.77c-68.077-25.448-121.454-43.878-148.712-53.088V393.46
			c44.796-12.605,77.731-53.825,77.731-102.596c0-58.758-47.804-106.562-106.562-106.562s-106.562,47.804-106.562,106.562
			c0,48.771,32.935,89.992,77.731,102.596v167.267c-27.258,9.21-80.635,27.64-148.712,53.088v-143.77
			c0-15.922-12.908-28.83-28.83-28.83H740.416c-12.606-44.795-53.826-77.729-102.595-77.729
			c-58.759,0-106.563,47.804-106.563,106.562S579.062,576.61,637.82,576.61c48.771,0,89.993-32.937,102.597-77.734h124.381v136.862
			c-68.667,26.551-147.051,58.47-226.439,94.08c-10.363,4.648-17.031,14.947-17.031,26.305V886.21H449.936V761.832
			c44.798-12.604,77.735-53.825,77.735-102.597c0-58.758-47.804-106.562-106.562-106.562c-58.758,0-106.562,47.804-106.562,106.562
			c0,48.77,32.934,89.99,77.729,102.596v153.21c0,15.922,12.908,28.83,28.83,28.83h200.221v125.873c0,7.677,0.13,15.287,0.367,22.84
			H344.521c-12.605-44.796-53.826-77.731-102.596-77.731c-58.758,0-106.562,47.804-106.562,106.562
			c0,58.758,47.804,106.562,106.562,106.562c48.771,0,89.992-32.936,102.597-77.732h281.414
			c6.273,53.211,18.946,102.898,37.917,148.712H421.106c-15.922,0-28.83,12.908-28.83,28.83v153.214
			c-44.795,12.606-77.729,53.826-77.729,102.595c0,58.758,47.804,106.562,106.562,106.562c58.758,0,106.562-47.804,106.562-106.562
			c0-48.772-32.937-89.993-77.735-102.597v-124.382h242.31c1.136,1.969,2.272,3.937,3.435,5.888
			c39.617,66.459,94.733,122.652,163.817,167.021c1.767,1.135,3.533,2.254,5.299,3.362v168.238H740.417
			c-12.604-44.798-53.825-77.734-102.597-77.734c-58.759,0-106.563,47.804-106.563,106.562c0,58.759,47.804,106.563,106.563,106.563
			c48.77,0,89.99-32.934,102.595-77.729h153.212c15.922,0,28.83-12.908,28.83-28.83v-165.183
			c62.137,30.146,117.843,44.588,148.712,50.939v190.83c-44.796,12.605-77.731,53.826-77.731,102.597
			c0,58.758,47.804,106.562,106.562,106.562s106.562-47.804,106.562-106.562c0-48.771-32.935-89.992-77.731-102.597v-190.83
			c30.869-6.351,86.575-20.794,148.712-50.939v165.183c0,15.922,12.908,28.83,28.83,28.83h153.212
			c12.606,44.795,53.826,77.729,102.595,77.729c58.759,0,106.563-47.804,106.563-106.563c0-58.758-47.804-106.562-106.563-106.562
			c-48.772,0-89.993,32.937-102.597,77.734h-124.381v-168.238c1.766-1.107,3.532-2.227,5.299-3.362
			c69.084-44.369,124.2-100.563,163.817-167.021c1.163-1.951,2.299-3.919,3.435-5.888h242.311v124.382
			c-44.798,12.604-77.735,53.825-77.735,102.597c0,58.758,47.804,106.562,106.562,106.562s106.562-47.804,106.562-106.562
			c0-48.769-32.934-89.989-77.728-102.595v-153.214c0-15.922-12.908-28.83-28.83-28.83h-242.747
			c18.971-45.813,31.645-95.501,37.917-148.712h281.415c12.604,44.796,53.825,77.732,102.596,77.732
			c58.759,0,106.563-47.804,106.563-106.562C2064.638,1062.656,2016.834,1014.852,1958.075,1014.852z M1729.989,659.234
			c0-26.965,21.937-48.902,48.901-48.902s48.901,21.937,48.901,48.902c0,26.942-21.899,48.862-48.832,48.9
			c-0.022,0-0.043-0.002-0.065-0.002c-0.023,0-0.046,0.002-0.069,0.002C1751.891,708.099,1729.989,686.177,1729.989,659.234z
			 M1562.18,421.146c26.965,0,48.902,21.937,48.902,48.902s-21.938,48.902-48.902,48.902c-26.952,0-48.88-21.917-48.9-48.865
			c0-0.013,0.001-0.026,0.001-0.04c0-0.013-0.001-0.025-0.001-0.037C1513.301,443.062,1535.228,421.146,1562.18,421.146z
			 M637.82,518.95c-26.965,0-48.902-21.937-48.902-48.902s21.938-48.902,48.902-48.902c26.951,0,48.879,21.916,48.9,48.862
			c0,0.013-0.001,0.025-0.001,0.037c0,0.013,0.001,0.026,0.001,0.04C686.7,497.033,664.773,518.95,637.82,518.95z M372.208,659.234
			c0-26.965,21.937-48.902,48.902-48.902c26.964,0,48.901,21.937,48.901,48.902c0,26.943-21.901,48.864-48.836,48.9
			c-0.023,0-0.046-0.002-0.069-0.002c-0.022,0-0.044,0.002-0.066,0.002C394.107,708.097,372.208,686.176,372.208,659.234z
			 M241.925,1170.315c-26.965,0-48.902-21.937-48.902-48.901s21.937-48.902,48.902-48.902s48.902,21.937,48.902,48.902
			S268.89,1170.315,241.925,1170.315z M470.011,1583.594c0,26.965-21.937,48.901-48.901,48.901
			c-26.965,0-48.902-21.937-48.902-48.901c0-26.958,21.926-48.889,48.881-48.901c0.006,0,0.012,0,0.018,0c0.007,0,0.014,0,0.021,0
			C448.083,1534.702,470.011,1556.635,470.011,1583.594z M637.82,1778.854c-26.965,0-48.902-21.938-48.902-48.902
			s21.938-48.901,48.902-48.901c26.952,0,48.88,21.917,48.9,48.864c0,0.013-0.001,0.027-0.001,0.04c0,0.012,0.001,0.025,0.001,0.037
			C686.699,1756.938,664.772,1778.854,637.82,1778.854z M1562.18,1681.05c26.965,0,48.902,21.937,48.902,48.901
			s-21.938,48.902-48.902,48.902c-26.951,0-48.878-21.916-48.9-48.862c0-0.012,0.001-0.025,0.001-0.037
			c0-0.013-0.001-0.027-0.001-0.04C1513.3,1702.966,1535.227,1681.05,1562.18,1681.05z M1827.792,1583.594
			c0,26.965-21.937,48.901-48.901,48.901s-48.901-21.937-48.901-48.901c0-26.959,21.927-48.892,48.884-48.901
			c0.007,0,0.014,0,0.021,0c0.006,0,0.011,0,0.017,0C1805.867,1534.705,1827.792,1556.636,1827.792,1583.594z M1051.099,290.864
			c0-26.965,21.937-48.902,48.901-48.902s48.901,21.937,48.901,48.902s-21.937,48.902-48.901,48.902
			S1051.099,317.829,1051.099,290.864z M1148.901,1909.137c0,26.965-21.937,48.901-48.901,48.901s-48.901-21.937-48.901-48.901
			s21.937-48.902,48.901-48.902S1148.901,1882.172,1148.901,1909.137z M1311.096,1479.877
			c-94.881,61.478-191.53,79.369-211.093,82.486c-19.637-3.129-116.251-21.029-211.099-82.486
			c-61.063-39.566-109.629-89.357-144.345-147.99c-43.511-73.488-65.572-161.686-65.572-262.144V774.838
			c194.474-86.107,378.976-148.949,421.014-162.971c42.031,14.018,226.443,76.82,421.012,162.97v294.905
			c0,100.458-22.062,188.656-65.572,262.144C1420.725,1390.52,1372.159,1440.311,1311.096,1479.877z M1958.075,1170.315
			c-26.965,0-48.901-21.937-48.901-48.901s21.937-48.902,48.901-48.902s48.902,21.937,48.902,48.902
			S1985.04,1170.315,1958.075,1170.315z"/>
	</g>
</g>
</svg>
