<?xml version="1.0" encoding="utf-8"?>
<!-- Generator: Adobe Illustrator 27.5.0, SVG Export Plug-In . SVG Version: 6.00 Build 0)  -->
<svg version="1.1" xmlns="http://www.w3.org/2000/svg" xmlns:xlink="http://www.w3.org/1999/xlink" x="0px" y="0px"
	 viewBox="0 0 2200 2200" style="enable-background:new 0 0 2200 2200;" xml:space="preserve">
<g id="background">
	<rect y="0" style="fill:#FFFFFF;" width="2200" height="2200"/>
</g>
<g id="Objects">
	<g>
		<g>
			<path d="M1900.644,1022.597c-31.432-74.315-76.426-141.052-133.732-198.358c-57.305-57.306-124.042-102.3-198.358-133.733
				c-20.989-8.878-42.336-16.552-63.991-23.033c-4.514-30.181-19.595-63.184-36.662-79.799
				c-25.845-25.135-59.958-39.528-92.705-54.596c-32.747-15.085-66.099-32.332-87.922-61.039
				c-29.4-38.706-33.698-92.947-66.151-129.137c-41.898-46.742-127.277-42.287-164.081,8.563
				c38.49,3.858,74.792,29.105,89.297,64.975c14.514,35.861,5,80.821-24.53,105.818c-29.521,24.988-77.387,26.182-106.562,0.779
				c-39.312-34.243-40.151-103.465-86.659-127.018c-25.205-12.767-55.729-6.997-82.378,2.387
				c-26.666,9.385-52.918,22.247-81.158,23.068c-28.249,0.813-59.794-15.266-64.664-43.109
				c-30.956,21.113-21.615,71.401,4.091,98.647c25.706,27.263,62.216,42.183,88.605,68.781c26.39,26.597,38.369,75.666,9.117,99.071
				c-27.583,22.065-70.312,3.693-91.823-24.322c-21.511-28.016-31.225-63.677-52.658-91.754
				c-29.893-39.148-82.611-59.413-131.031-50.383c-38.386,7.162-72.301,30.784-110.826,37.219
				c-68.98,11.53-141.739-43.983-148.858-113.568c-21.641,113.066-6.323,244.339,81.002,319.348
				c27.981,24.037,61.558,40.696,90.5,63.582c28.941,22.869,54.198,54.993,54.941,91.875c0.761,36.881-32.954,74.801-69.014,67.025
				c-23.916-5.164-40.999-27.28-64.482-34.122c-24.616-7.179-51.637,4.307-69.767,22.419c-18.138,18.121-29.192,41.959-39.883,65.26
				c75.562-12.49,147.482,42.287,188.394,107.02c40.929,64.733,61.083,140.468,98.224,207.449
				c33.836,61.022,106.973,151.327,201.435,165.173c3.801,10.532,7.883,20.986,12.267,31.351
				c31.432,74.316,76.426,141.053,133.732,198.358c57.305,57.306,124.042,102.3,198.358,133.733
				c76.951,32.548,158.681,49.051,242.919,49.051s165.969-16.503,242.919-49.051c74.316-31.432,141.053-76.426,198.358-133.733
				c57.306-57.305,102.3-124.042,133.732-198.358c32.548-76.951,49.051-158.681,49.051-242.919
				C1949.695,1181.278,1933.192,1099.548,1900.644,1022.597z M1861.418,1491.843c-29.286,69.239-71.214,131.426-124.622,184.834
				c-53.408,53.407-115.595,95.336-184.834,124.622c-71.672,30.315-147.82,45.687-226.327,45.687s-154.655-15.371-226.327-45.687
				c-69.239-29.286-131.426-71.214-184.834-124.622c-53.407-53.408-95.336-115.596-124.622-184.834
				c-30.315-71.672-45.687-147.82-45.687-226.327c0-78.507,15.371-154.655,45.687-226.328
				c29.286-69.239,71.214-131.425,124.622-184.833c53.408-53.408,115.596-95.337,184.834-124.623
				c71.672-30.315,147.82-45.686,226.327-45.686s154.655,15.371,226.327,45.686c69.239,29.286,131.426,71.214,184.834,124.623
				c53.407,53.408,95.336,115.594,124.622,184.833c30.315,71.673,45.687,147.82,45.687,226.328
				C1907.104,1344.023,1891.733,1420.171,1861.418,1491.843z"/>
		</g>
		<g>
			<path d="M1312.219,1000.37c-25.484,61.105-78.402,196.252-78.402,265.146c0,50.711,41.106,91.817,91.817,91.817
				s91.817-41.106,91.817-91.817c0-68.894-52.918-204.041-78.402-265.146C1334.079,988.452,1317.19,988.452,1312.219,1000.37z
				 M1352.545,1265.516c0,14.869-12.042,26.911-26.911,26.911s-26.911-12.042-26.911-26.911c0-14.869,12.042-26.911,26.911-26.911
				S1352.545,1250.647,1352.545,1265.516z"/>
		</g>
		<g>
			<path d="M1056.929,1018.979L948.353,910.403c-42.409,44.997-76.055,96.55-100.12,153.445
				c-27.013,63.867-40.709,131.718-40.709,201.668c0,69.95,13.697,137.801,40.709,201.668
				c24.065,56.896,57.711,108.448,100.12,153.445l108.576-108.575c-28.356-30.853-50.957-65.971-67.291-104.591
				c-19.018-44.967-28.66-92.724-28.66-141.947c0-49.223,9.642-96.981,28.66-141.947
				C1005.972,1084.948,1028.573,1049.831,1056.929,1018.979z"/>
		</g>
		<g>
			<path d="M1702.916,910.403l-108.576,108.576c28.356,30.852,50.957,65.969,67.291,104.59
				c19.018,44.966,28.66,92.724,28.66,141.947c0,49.223-9.642,96.98-28.66,141.947c-16.334,38.62-38.935,73.738-67.291,104.591
				l108.576,108.575c42.409-44.997,76.055-96.55,100.12-153.445c27.013-63.867,40.709-131.718,40.709-201.668
				c0-69.95-13.697-137.801-40.709-201.668C1778.971,1006.953,1745.325,955.4,1702.916,910.403z"/>
		</g>
		<g>
			<path d="M1680.748,888.235c-44.997-42.409-96.55-76.055-153.445-100.12c-63.867-27.013-131.718-40.71-201.668-40.71
				s-137.801,13.697-201.668,40.71c-56.896,24.064-108.448,57.711-153.445,100.12l55.263,55.263l53.312,53.312
				c30.853-28.356,65.971-50.957,104.591-67.291c44.967-19.018,92.724-28.661,141.947-28.661s96.981,9.643,141.947,28.661
				c38.621,16.334,73.738,38.936,104.591,67.291l53.312-53.312L1680.748,888.235z"/>
		</g>
	</g>
</g>
</svg>
